<svg height="512pt" viewBox="0 0 512.00002 512" width="512pt" xmlns="http://www.w3.org/2000/svg"><path d="m512 459.035156h-512c19.5 0 35.308594-15.808594 35.308594-35.3125h441.382812c0 19.503906 15.808594 35.3125 35.308594 35.3125zm0 0" fill="#4a2900"/><path d="m269.242188 88.71875c-1.460938-.183594-2.902344-.445312-4.414063-.445312h-17.65625c-19.5 0-35.308594 15.8125-35.308594 35.3125h26.480469c0-17.988282 13.503906-32.671876 30.898438-34.867188zm0 0" fill="#e7b900"/><path d="m300.136719 123.585938h-61.792969c0-18.007813 13.507812-32.660157 30.898438-34.867188 17.390624 2.207031 30.894531 16.859375 30.894531 34.867188zm0 0" fill="#ffd422"/><path d="m238.34375 123.585938h35.3125v35.3125h-35.3125zm0 0" fill="#bdccd4"/><path d="m0 459.035156h512v52.964844h-512zm0 0" fill="#693b00"/><path d="m512 459.035156h-467.863281c19.503906 0 35.3125-15.808594 35.3125-35.3125h397.242187c0 19.503906 15.808594 35.3125 35.308594 35.3125zm0 0" fill="#693b00"/><path d="m44.136719 459.035156h467.863281v52.964844h-467.863281zm0 0" fill="#884d00"/><path d="m256 158.898438c-141.386719 0-256 114.613281-256 255.996093v8.832031h512v-8.832031c0-141.382812-114.613281-255.996093-256-255.996093zm0 0" fill="#e7b900"/><path d="m256 158.898438c-13.230469 0-26.222656 1.003906-38.914062 2.9375-91.308594 39.117187-155.292969 129.777343-155.292969 235.40625v8.828124h449.984375c-4.660156-137.289062-117.351563-247.171874-255.777344-247.171874zm0 0" fill="#ffd422"/><path d="m273.65625 52.964844h-35.3125l-8.828125-52.964844h52.96875zm0 0" fill="#ff0c38"/><path d="m124.917969 99.949219-24.96875 24.96875-43.695313-31.210938 37.453125-37.453125zm0 0" fill="#ff0c38"/><path d="m387.082031 99.949219 24.96875 24.96875 43.695313-31.210938-37.453125-37.453125zm0 0" fill="#ff0c38"/><g fill="#fff"><path d="m88.007812 328.785156-17.125-4.300781c.101563-.40625 2.523438-9.933594 9.496094-23.878906l15.792969 7.894531c-6.03125 12.058594-8.144531 20.207031-8.164063 20.285156zm0 0"/><path d="m108.660156 287.515625-14.5-10.066406c6.769532-9.757813 14.566406-19.070313 23.179688-27.691407 36.621094-36.621093 73.1875-46.078124 74.722656-46.457031l4.285156 17.121094-2.140625-8.558594 2.160157 8.558594c-.328126.085937-33.585938 8.863281-66.542969 41.820313-7.867188 7.871093-14.988281 16.378906-21.164063 25.273437zm0 0"/><path d="m238.34375 97.105469h17.65625v17.652343h-17.65625zm0 0"/><path d="m361.929688 476.691406h123.589843v17.652344h-123.589843zm0 0"/><path d="m326.621094 476.691406h17.65625v17.652344h-17.65625zm0 0"/><path d="m88.007812 328.785156-17.125-4.300781c.101563-.40625 2.523438-9.933594 9.496094-23.878906l15.792969 7.894531c-6.03125 12.058594-8.144531 20.207031-8.164063 20.285156zm0 0"/><path d="m108.660156 287.515625-14.5-10.066406c6.769532-9.757813 14.566406-19.070313 23.179688-27.691407 36.621094-36.621093 73.1875-46.078124 74.722656-46.457031l4.285156 17.121094-2.140625-8.558594 2.160157 8.558594c-.328126.085937-33.585938 8.863281-66.542969 41.820313-7.867188 7.871093-14.988281 16.378906-21.164063 25.273437zm0 0"/><path d="m238.34375 97.105469h17.65625v17.652343h-17.65625zm0 0"/><path d="m361.929688 476.691406h123.589843v17.652344h-123.589843zm0 0"/><path d="m326.621094 476.691406h17.65625v17.652344h-17.65625zm0 0"/></g></svg>