<svg height="512pt" viewBox="0 0 512 512" width="512pt" xmlns="http://www.w3.org/2000/svg"><path d="m363.34375 192.265625c.617188 8.121094-2.472656 15.445313-7.679688 20.65625-4.679687 4.679687-11.125 7.679687-18.273437 7.765625h-10.769531c0 5.476562-.707032 10.859375-2.121094 15.890625-2.734375 10.683594-8.386719 20.214844-15.976562 27.808594-11.210938 11.210937-26.570313 18.097656-43.695313 18.097656h-17.65625c-28.691406 0-52.699219-19.421875-59.675781-45.90625-1.410156-5.03125-2.117188-10.414063-2.117188-15.890625h-10.769531c-7.152344-.085938-13.59375-3.089844-18.273437-7.765625-5.207032-5.207031-8.296876-12.535156-7.679688-20.65625.527344-7.679687 4.589844-14.300781 10.414062-18.628906 4.855469-3.707031 11.035157-5.914063 17.480469-5.914063h8.828125v-27.894531c15.535156 9.976563 38.488282 19.070313 70.621094 19.070313 32.128906 0 55.082031-9.09375 70.621094-19.070313v27.894531h8.824218c6.445313 0 12.625 2.207032 17.480469 5.914063 5.828125 4.328125 9.886719 10.949219 10.417969 18.628906zm0 0" fill="#ffb398"/><path d="m308.964844 264.828125v52.964844h-105.929688v-52.964844h.96875c11.035156 10.945313 26.308594 17.65625 43.167969 17.65625h17.65625c16.859375 0 32.042969-6.710937 43.167969-17.65625zm0 0" fill="#fe946f"/><path d="m88.277344 512h-88.277344v-150.070312c0-24.375 19.761719-44.136719 44.136719-44.136719h44.136719zm0 0" fill="#ff0c38"/><path d="m512 361.929688v150.070312h-88.277344v-52.964844h35.3125v-52.96875h-35.3125v-88.273437h44.140625c24.363281 0 44.136719 19.773437 44.136719 44.136719zm0 0" fill="#b30222"/><path d="m158.898438 79.449219h194.207031v35.308593h-194.207031zm0 0" fill="#ffd422"/><path d="m158.898438 0h194.207031v79.449219h-194.207031zm0 0" fill="#ff0c38"/><path d="m344.277344 317.792969h-88.277344c0-19.5 15.808594-35.308594 35.308594-35.308594h52.96875zm0 0" fill="#b30222"/><path d="m256 317.792969h-88.277344v-35.308594h52.96875c19.5 0 35.308594 15.808594 35.308594 35.308594zm0 0" fill="#ff0c38"/><path d="m353.101562 114.757812s-7.855468 13.152344-26.480468 25.070313c-15.539063 9.976563-38.488282 19.066406-70.621094 19.066406s-55.085938-9.089843-70.621094-19.066406c-18.625-11.917969-26.484375-25.070313-26.484375-25.070313zm0 0" fill="#ff0c38"/><path d="m185.378906 139.828125v27.894531h-8.828125c-6.441406 0-12.621093 2.207032-17.476562 5.914063-.089844-1.941407-.179688-3.972657-.179688-5.914063v-52.964844c.003907 0 7.859375 13.152344 26.484375 25.070313zm0 0" fill="#4d4d4d"/><path d="m353.101562 114.757812v52.964844c0 1.945313-.085937 3.972656-.175781 5.914063-4.855469-3.707031-11.035156-5.914063-17.476562-5.914063h-8.828125v-27.894531c18.625-11.917969 26.480468-25.070313 26.480468-25.070313zm0 0" fill="#4d4d4d"/><path d="m370.757812 406.070312v52.964844h52.964844v52.964844h-256v-141.242188l88.277344-17.65625v-35.308593h167.722656v88.277343zm0 0" fill="#ff0c38"/><path d="m370.757812 406.070312h88.277344v52.964844h-88.277344zm0 0" fill="#ffd422"/><path d="m88.277344 317.792969v194.207031h79.445312v-141.242188l88.277344-17.65625v-35.308593zm0 0" fill="#b30222"/><path d="m194.207031 397.242188h17.65625v17.65625h-17.65625zm0 0" fill="#ffd422"/><path d="m194.207031 432.550781h17.65625v17.65625h-17.65625zm0 0" fill="#ffd422"/><path d="m194.207031 467.863281h17.65625v17.65625h-17.65625zm0 0" fill="#ffd422"/><g fill="#fff"><path d="m176.550781 79.988281h17.65625v17.65625h-17.65625zm0 0"/><path d="m194.207031 61.792969h-17.65625v-35.308594c0-4.875 3.949219-8.828125 8.828125-8.828125h35.308594v17.65625h-26.480469zm0 0"/><path d="m176.550781 79.988281h17.65625v17.65625h-17.65625zm0 0"/><path d="m194.207031 61.792969h-17.65625v-35.308594c0-4.875 3.949219-8.828125 8.828125-8.828125h35.308594v17.65625h-26.480469zm0 0"/></g></svg>